<svg xmlns="http://www.w3.org/2000/svg" version="1.1"
     viewBox="0 0 512.009 512.009" xml:space="preserve"><path d="M495.617 367.387H436.84V172.604c0-9.052-7.331-16.383-16.383-16.383s-16.392 7.331-16.392 16.383V387c0 9.185-9.144 16.947-20.024 17.08-.095-.002-.186-.014-.281-.014-.178 0-.351.021-.528.027h-62.816c-.177-.006-.349-.027-.528-.027s-.351.021-.528.027h-62.834c-.177-.006-.349-.027-.527-.027s-.35.021-.527.027h-62.826c-.177-.006-.349-.027-.527-.027s-.35.021-.527.027h-62.826c-.177-.006-.349-.027-.527-.027-.095 0-.187.013-.281.014-10.889-.133-20.024-7.895-20.024-17.08V125.045c0-9.265 9.301-17.093 20.305-17.093H383.76c11.005 0 20.305 7.828 20.305 17.093v3.213c0 9.052 7.339 16.383 16.392 16.383h75.16c9.052 0 16.392-7.331 16.392-16.383s-7.339-16.383-16.392-16.383h-60.659c-4.723-16.174-17.922-29.08-34.807-34.244V25.612c0-9.052-7.339-16.383-16.392-16.383-9.052 0-16.383 7.331-16.383 16.383v49.574H336.27V25.612c0-9.052-7.331-16.383-16.383-16.383s-16.392 7.331-16.392 16.383v49.574H272.38V25.612c0-9.052-7.339-16.383-16.383-16.383s-16.383 7.331-16.383 16.383v49.574h-31.115V25.612c0-9.052-7.339-16.383-16.383-16.383s-16.383 7.331-16.383 16.383v49.574h-31.115V25.612c0-9.052-7.331-16.383-16.383-16.383s-16.383 7.331-16.383 16.383v52.016c-16.884 5.16-30.073 18.065-34.795 34.238H16.383C7.339 111.866 0 119.196 0 128.249c0 9.052 7.339 16.383 16.383 16.383h58.786v222.755H16.383C7.339 367.387 0 374.717 0 383.769c0 9.052 7.339 16.383 16.383 16.383H77.06c4.721 16.173 17.91 29.083 34.796 34.246v51.999c0 9.052 7.331 16.383 16.383 16.383 9.043 0 16.383-7.331 16.383-16.383V436.84h31.115v49.556c0 9.052 7.331 16.383 16.383 16.383 9.043 0 16.383-7.331 16.383-16.383V436.84h31.115v49.556c0 9.052 7.331 16.383 16.383 16.383s16.383-7.331 16.383-16.383V436.84h31.115v49.556c0 9.052 7.339 16.383 16.392 16.383 9.043 0 16.383-7.331 16.383-16.383V436.84h31.106v49.556c0 9.052 7.331 16.383 16.383 16.383s16.392-7.331 16.392-16.383v-52c16.886-5.163 30.073-18.071 34.795-34.244h60.67c9.043 0 16.392-7.331 16.392-16.383-.003-9.052-7.343-16.382-16.395-16.382z" fill="#000000" opacity="1" />
    <path d="M495.617 303.506h-31.771c-9.052 0-16.383 7.331-16.383 16.383s7.331 16.383 16.383 16.383h31.771c9.043 0 16.392-7.331 16.392-16.383s-7.34-16.383-16.392-16.383zM495.617 239.617h-31.771c-9.052 0-16.383 7.331-16.383 16.383s7.331 16.383 16.383 16.383h31.771c9.043 0 16.392-7.331 16.392-16.383s-7.34-16.383-16.392-16.383zM495.617 175.737h-31.771c-9.052 0-16.383 7.331-16.383 16.383s7.331 16.383 16.383 16.383h31.771c9.043 0 16.392-7.331 16.392-16.383s-7.34-16.383-16.392-16.383zM16.383 336.272h31.78c9.043 0 16.383-7.331 16.383-16.383s-7.331-16.383-16.383-16.383h-31.78C7.339 303.506 0 310.846 0 319.889s7.339 16.383 16.383 16.383zM16.383 272.383h31.78c9.043 0 16.383-7.322 16.383-16.374s-7.331-16.383-16.383-16.383h-31.78C7.339 239.626 0 246.965 0 256.009c0 9.043 7.339 16.374 16.383 16.374zM16.383 208.503h31.78c9.043 0 16.383-7.331 16.383-16.383s-7.331-16.383-16.383-16.383h-31.78C7.339 175.737 0 183.068 0 192.12s7.339 16.383 16.383 16.383zM203.08 170.27a16.373 16.373 0 0 0-15.265 10.428l-54.091 138.703c-3.284 8.44.879 17.936 9.31 21.219 8.44 3.284 17.936-.887 21.219-9.31l8.583-22.009h60.488l8.583 22.009c2.52 6.479 8.706 10.437 15.264 10.437 1.979 0 3.994-.364 5.955-1.127 8.422-3.284 12.602-12.788 9.31-21.219l-54.091-138.703a16.382 16.382 0 0 0-15.265-10.428zm-17.467 106.266 17.467-44.791 17.467 44.791h-34.934zM348.723 203.036c9.043 0 16.392-7.331 16.392-16.383s-7.339-16.383-16.392-16.383H302.85c-9.052 0-16.383 7.331-16.383 16.383s7.331 16.383 16.383 16.383h6.55v105.946h-6.55c-9.052 0-16.383 7.331-16.383 16.383s7.331 16.383 16.383 16.383h45.873c9.043 0 16.392-7.331 16.392-16.383s-7.339-16.383-16.392-16.383h-6.541V203.036h6.541z"
          fill="#000000" opacity="1"/></svg>