<svg xmlns="http://www.w3.org/2000/svg" version="1.1" width="512"
     height="512" x="0" y="0" viewBox="0 0 46 60" style="enable-background:new 0 0 512 512" xml:space="preserve"
     class=""><g><g fill="#000" fill-rule="nonzero"><path d="M35.293 45.707A1 1 0 0 0 37 45a7.925 7.925 0 0 1 2.086-5.76c.53.439.86 1.074.914 1.76a1 1 0 0 0 1.857.515C44.722 36.74 46 30.1 46 20a24.414 24.414 0 0 0-2.286-10.911c.42-2.212.361-4.488-.171-6.675A2.959 2.959 0 0 0 40.313.1 13.513 13.513 0 0 0 35.9 1.393 14.4 14.4 0 0 0 30 0a12.661 12.661 0 0 0-7 1.748A12.661 12.661 0 0 0 16 0a14.4 14.4 0 0 0-5.9 1.393A13.513 13.513 0 0 0 5.687.1a2.955 2.955 0 0 0-3.23 2.311 15.783 15.783 0 0 0-.171 6.675A24.414 24.414 0 0 0 0 20c0 10.1 1.278 16.74 4.143 21.515a1 1 0 0 0 1.857-.5c.05-.69.38-1.33.913-1.771A7.922 7.922 0 0 1 9 45a1 1 0 0 0 1.707.707 21.99 21.99 0 0 0 2.274-2.74 25.62 25.62 0 0 1 1.4 3.183c-.9.341-1.932.63-3.028.933C6.56 48.408 0 50.222 0 59a1 1 0 0 0 1 1h44a1 1 0 0 0 1-1c0-8.778-6.56-10.592-11.35-11.917-1.1-.3-2.13-.593-3.028-.932a25.575 25.575 0 0 1 1.4-3.184 21.99 21.99 0 0 0 2.271 2.74zm5.25-43.618a.981.981 0 0 1 1.05.766c.51 2.254.941 6.218-1.322 8.914a20.4 20.4 0 0 0-7.3-5.613 11.519 11.519 0 0 1 7.572-4.067zm-36.136.766a.982.982 0 0 1 1.05-.766 11.519 11.519 0 0 1 7.574 4.067 20.4 20.4 0 0 0-7.3 5.613C3.466 9.073 3.9 5.109 4.407 2.855zM7.048 23c.092 1.923.418 3.827.973 5.67a3.41 3.41 0 0 1-1.027-.85 4.51 4.51 0 0 1-.841-3.953c.059-.321.235-.609.494-.807a.817.817 0 0 1 .401-.06zM9 21.94v-1.331a4.888 4.888 0 0 1 2.864-4.548 21.692 21.692 0 0 1 3.384-1.091A15.535 15.535 0 0 0 23 10.6c2.104 2.182 4.8 3.7 7.757 4.368 1.156.27 2.288.635 3.384 1.091a4.888 4.888 0 0 1 2.864 4.548L37 21.94c0 4.9-1.855 10.039-4.726 13.082C28.928 38.558 26.241 40 23 40s-5.928-1.442-9.272-4.976C10.855 31.979 9 26.844 9 21.94zM38.952 23a.817.817 0 0 1 .4.06c.26.199.436.487.495.808a4.513 4.513 0 0 1-.842 3.952 3.439 3.439 0 0 1-1.027.85c.555-1.843.882-3.747.974-5.67zM23 42c1.235 0 2.463-.199 3.634-.591a7.43 7.43 0 0 0 1.782 4.962A8.811 8.811 0 0 1 23 48a8.811 8.811 0 0 1-5.416-1.629 7.426 7.426 0 0 0 1.782-4.962c1.171.392 2.399.592 3.634.591zm-3.858 16a3.981 3.981 0 0 1 7.716 0zm24.824 0H36v-2a1 1 0 0 0-2 0v2h-5.09a5.993 5.993 0 0 0-11.82 0H12v-2a1 1 0 0 0-2 0v2H2.034c.445-6.389 5.222-7.709 9.849-8.989 1.17-.3 2.322-.66 3.453-1.082.205-.09.405-.19.6-.3A10.6 10.6 0 0 0 23 50a10.61 10.61 0 0 0 7.061-2.374c.195.11.395.21.6.3 1.13.422 2.283.783 3.452 1.082 4.631 1.283 9.408 2.603 9.853 8.992zm-11.8-17.554a25.289 25.289 0 0 0-2.266 4.593 6.119 6.119 0 0 1-1.25-4.5 20.937 20.937 0 0 0 5.078-4.139 18.334 18.334 0 0 0 3.42-5.422 4.989 4.989 0 0 0 3.411-1.89 6.569 6.569 0 0 0 1.214-5.754 3.091 3.091 0 0 0-1.508-2.045A2.7 2.7 0 0 0 39 21v-.383a6.886 6.886 0 0 0-4.063-6.391 23.619 23.619 0 0 0-3.7-1.2 13.521 13.521 0 0 1-6.775-3.786 2.053 2.053 0 0 0-2.936 0 13.518 13.518 0 0 1-6.775 3.786 23.619 23.619 0 0 0-3.7 1.2A6.886 6.886 0 0 0 7 20.62V21c-.437-.01-.87.087-1.262.282a3.087 3.087 0 0 0-1.507 2.043 6.568 6.568 0 0 0 1.213 5.756 4.991 4.991 0 0 0 3.412 1.89 18.321 18.321 0 0 0 3.418 5.429 20.862 20.862 0 0 0 5.081 4.138 6.118 6.118 0 0 1-1.25 4.5 25.289 25.289 0 0 0-2.272-4.593 1 1 0 0 0-1.728.106c-.378.724-.826 1.41-1.336 2.049a8.672 8.672 0 0 0-3.214-5.43 1 1 0 0 0-1-.063 4.586 4.586 0 0 0-1.711 1.441C2.886 34.242 2 28.388 2 20a24.145 24.145 0 0 1 1.3-8.219c.339.6.75 1.158 1.224 1.659-.376.594-.715 1.21-1.014 1.846a1 1 0 0 0 1.812.848c2.206-4.716 6.986-8.3 12.794-9.6a1 1 0 0 0 .845-.989 1.02 1.02 0 0 0-1.221-.977c-.94.21-1.867.48-2.774.805a14.557 14.557 0 0 0-2.732-2.674A11.9 11.9 0 0 1 16 2c4.449 0 6.283 1.7 6.293 1.707A.989.989 0 0 0 23 4c.26 0 .511-.101.7-.281C23.717 3.7 25.551 2 30 2a11.9 11.9 0 0 1 3.762.694 14.557 14.557 0 0 0-2.732 2.674 23.249 23.249 0 0 0-2.774-.805 1.043 1.043 0 0 0-.216-.023h-.01a1 1 0 0 0-.186 1.981c5.824 1.3 10.619 4.887 12.83 9.613a1 1 0 1 0 1.812-.848c-.3-.636-.638-1.252-1.014-1.846.476-.5.888-1.058 1.228-1.659A24.145 24.145 0 0 1 44 20c0 8.388-.886 14.242-2.842 18.546a4.586 4.586 0 0 0-1.711-1.446 1 1 0 0 0-1 .063 8.672 8.672 0 0 0-3.214 5.43 12.683 12.683 0 0 1-1.333-2.04 1 1 0 0 0-1.728-.107z" fill="#000000" opacity="1" data-original="#000000"></path><path
        d="M18 28a1 1 0 0 0 .7-1.713c.196-.4.298-.84.3-1.287a3 3 0 0 0-3.622-2.933 5.849 5.849 0 0 0-2.137.872 5.59 5.59 0 0 1-.572.318 1 1 0 0 0-1.376 1.45c.33.36.794.568 1.282.574.151-.002.301-.02.448-.057.025.369.12.73.279 1.063A1 1 0 0 0 14 28zm-3-3a1 1 0 1 1 2 0 1 1 0 0 1-2 0zM27 27a1 1 0 0 0 1 1h4a1 1 0 0 0 .7-1.713c.158-.332.253-.691.279-1.058.144.034.291.052.439.054a1.779 1.779 0 0 0 1.291-.576.988.988 0 0 0-.011-1.4 1.012 1.012 0 0 0-1.364-.046c-.152-.07-.3-.15-.442-.239l-.131-.079a5.849 5.849 0 0 0-2.137-.872A2.97 2.97 0 0 0 30 22a3 3 0 0 0-3 3c.002.446.104.886.3 1.287A.993.993 0 0 0 27 27zm3-3a1 1 0 1 1 0 2 1 1 0 0 1 0-2zM13 21a1 1 0 0 0 .707-.293c1.526-1.526 3.957-.765 3.981-.757a1 1 0 0 0 .628-1.9c-.146-.05-3.616-1.166-6.023 1.243A1 1 0 0 0 13 21zM28.312 19.95c.024-.008 2.454-.769 3.981.757a1 1 0 0 0 1.414-1.414C31.3 16.884 27.83 18 27.684 18.051a1 1 0 0 0 .628 1.9zM22 30h2a1 1 0 0 0 0-2h-2a1 1 0 0 0 0 2zM19 33a4 4 0 1 0 8 0v-1a1 1 0 0 0-1-1h-6a1 1 0 0 0-1 1zm6 0a2 2 0 1 1-4 0z"
        fill="#000000" opacity="1" data-original="#000000"></path></g></g></svg>