<svg xmlns="http://www.w3.org/2000/svg" version="1.1" width="512"
     height="512" x="0" y="0" viewBox="0 0 487 487.788" style="enable-background:new 0 0 512 512" xml:space="preserve"
     class=""><g><path d="M480.398 343.79v-72c-.023-22.083-17.918-39.978-40-40h-32v-80a8 8 0 0 0-8-8h-48a8 8 0 0 0-8 8v80h-72v-96a8 8 0 0 0-8-8h-48a8 8 0 0 0-8 8v96h-72v-80a8 8 0 0 0-8-8h-48a8 8 0 0 0-8 8v80h-32c-22.078.023-39.972 17.917-40 40v72a46.404 46.404 0 0 0 24 41.374v86.625h-16a8 8 0 0 0 0 16h464a8 8 0 0 0 0-16h-16v-86.504a48.144 48.144 0 0 0 24-41.496zm-120-184h32v72h-32zm-136-16h32v88h-32zm-136 16h32v72h-32zm-72 112c0-13.259 10.747-24 24-24h400c13.258 0 24 10.741 24 24v72a32.193 32.193 0 0 1-19.144 29.358 32.725 32.725 0 0 1-35.484-6.664 32.128 32.128 0 0 1-9.372-22.695v-32a31.921 31.921 0 0 0-17.71-28.48l-.489-.266a30.57 30.57 0 0 0-3.953-1.543c-.797-.266-1.527-.527-2.32-.719a30.845 30.845 0 0 0-3.102-.547c-.703-.101-1.375-.312-2.09-.367-.382 0-.75.055-1.125.04-.379-.016-.793-.118-1.21-.118-.887 0-1.743.184-2.622.254-.882.074-1.816.113-2.715.266a31.97 31.97 0 0 0-4.085 1.046c-.723.223-1.457.383-2.16.657a30.661 30.661 0 0 0-4.313 2.16c-.504.289-1.04.496-1.535.8a32.156 32.156 0 0 0-5.184 4.184 31.79 31.79 0 0 0-9.387 22.633v16c0 17.672-14.324 32-32 32-17.671 0-32-14.328-32-32v-16a31.921 31.921 0 0 0-17.71-28.48l-.489-.266a30.57 30.57 0 0 0-3.953-1.543c-.797-.266-1.527-.527-2.32-.719a30.845 30.845 0 0 0-3.102-.547c-.703-.101-1.375-.312-2.09-.367-.382 0-.75.055-1.125.04-.379-.016-.793-.118-1.21-.118-.887 0-1.743.184-2.622.254-.882.074-1.816.113-2.714.266-1.38.257-2.743.609-4.079 1.046-.73.223-1.464.383-2.168.657a31.081 31.081 0 0 0-4.296 2.152c-.512.29-1.055.504-1.551.8a31.9 31.9 0 0 0-5.184 4.177 31.794 31.794 0 0 0-9.387 22.648v48c0 17.672-14.324 32-32 32-17.671 0-32-14.328-32-32v-48a31.921 31.921 0 0 0-17.71-28.48l-.489-.266a30.57 30.57 0 0 0-3.953-1.543c-.797-.266-1.527-.527-2.32-.719a30.845 30.845 0 0 0-3.102-.547c-.703-.101-1.375-.312-2.09-.367a31.565 31.565 0 0 0-2.336-.078c-17.671 0-32 14.324-32 32v32a32.052 32.052 0 0 1-9.304 22.629 33.015 33.015 0 0 1-29.895 8.48 31.904 31.904 0 0 1-5.597-1.734 32.929 32.929 0 0 1-9.832-6.68 32.128 32.128 0 0 1-9.372-22.695zm24 200v-80.665c.801.133 1.602.168 2.403.262l.613.066a48.17 48.17 0 0 0 20.723-2.402 48.764 48.764 0 0 0 5.933-2.543c.41-.2.801-.418 1.227-.64a49.046 49.046 0 0 0 4.512-2.778c.464-.317.933-.613 1.39-.95a46.654 46.654 0 0 0 19.2-38.35v-32a15.883 15.883 0 0 1 4.695-11.306c.8-.793 1.68-1.504 2.625-2.113.168-.101.351-.176.52-.27.784-.48 1.605-.89 2.456-1.226.25-.094.504-.152.754-.23a15.282 15.282 0 0 1 2.399-.602c.382-.063.8-.078 1.175-.121a17.485 17.485 0 0 1 2.024-.07 13.81 13.81 0 0 1 1.504.152c.601.07 1.199.18 1.785.328.2.047.383.121.574.176a17.478 17.478 0 0 1 11.488 16.633v46.648c0 26.508 21.493 48 48 48 26.512 0 48-21.492 48-48v-48a15.954 15.954 0 0 1 7.336-13.426c.137-.086.297-.144.434-.23a15.981 15.981 0 0 1 2.55-1.266c.227-.086.458-.137.68-.207a16.958 16.958 0 0 1 2.403-.625c.383-.055.8-.078 1.152-.113.672-.067 1.352-.09 2.031-.07.504.023 1.004.074 1.504.152.602.07 1.196.18 1.785.328.2.047.383.121.575.176a17.479 17.479 0 0 1 11.55 16.633v14.648c0 26.508 21.493 48 48 48 26.512 0 48-21.492 48-48v-16a15.883 15.883 0 0 1 4.696-11.305c.8-.793 1.68-1.504 2.625-2.113.168-.101.351-.176.527-.281a16.421 16.421 0 0 1 2.45-1.215c.25-.094.511-.152.8-.23.77-.266 1.559-.465 2.36-.602.382-.063.8-.078 1.175-.121a17.485 17.485 0 0 1 2.024-.07 13.81 13.81 0 0 1 1.504.152c.601.07 1.199.18 1.785.328.199.047.383.121.574.176a17.478 17.478 0 0 1 11.48 16.633v30.648a48.05 48.05 0 0 0 14.059 34.008 48.854 48.854 0 0 0 5.063 4.305c.52.375 1.054.71 1.601 1.07a48.843 48.843 0 0 0 4.117 2.543 48.974 48.974 0 0 0 6.64 3.008c.337.12.665.273 1.009.386a48.644 48.644 0 0 0 13.601 2.559h.055c2.23.09 4.465.023 6.687-.2l.801-.09c.801-.085 1.602-.12 2.403-.253v80.664zM240.398 111.79c22.082-.028 39.977-17.923 40-40 0-19.204-27.832-60.474-33.414-68.548a8.305 8.305 0 0 0-13.168 0c-5.586 8.074-33.418 49.344-33.418 68.547.028 22.078 17.922 39.973 40 40zm0-89.54c11.512 17.992 24 40.8 24 49.54 0 13.253-10.742 24-24 24-13.253 0-24-10.747-24-24 0-8.74 12.489-31.548 24-49.54zM376.398 127.79c22.082-.028 39.977-17.923 40-40 0-19.204-27.832-60.474-33.414-68.548a8.305 8.305 0 0 0-13.168 0c-5.586 8.074-33.418 49.344-33.418 68.547.028 22.078 17.922 39.973 40 40zm0-89.54c11.512 17.992 24 40.8 24 49.54 0 13.253-10.742 24-24 24-13.253 0-24-10.747-24-24 0-8.74 12.489-31.548 24-49.54zM104.398 127.79c22.082-.028 39.977-17.923 40-40 0-19.204-27.832-60.474-33.414-68.548a8.305 8.305 0 0 0-13.168 0C92.23 27.316 64.398 68.586 64.398 87.79c.028 22.078 17.922 39.973 40 40zm0-89.54c11.512 17.992 24 40.8 24 49.54 0 13.253-10.742 24-24 24-13.253 0-24-10.747-24-24 0-8.74 12.489-31.548 24-49.54zm0 0" fill="#000000" opacity="1" data-original="#000000" class=""></path></g></svg>