<svg xmlns="http://www.w3.org/2000/svg" version="1.1" width="512"
     height="512" x="0" y="0" viewBox="0 0 512 512.003" style="enable-background:new 0 0 512 512" xml:space="preserve"
     class=""><g><path d="M298.309 267.762h.101c4.145 0 7.5-3.356 7.5-7.5a7.5 7.5 0 0 0-7.5-7.5h-.101a7.5 7.5 0 0 0-7.5 7.5c0 4.144 3.355 7.5 7.5 7.5zM182.422 252.762h-.106a7.5 7.5 0 1 0 0 15h.106a7.5 7.5 0 1 0 0-15zm0 0" fill="#000000" opacity="1" data-original="#000000" class=""></path><path
        d="M463.93 39.883a12.141 12.141 0 0 0-8.09-6.692 12.29 12.29 0 0 0-10.399 2.102c-10.765 8.086-14.554 18.312-12.675 34.2 2.261 19.085-5.875 36.929-22.32 48.956-9.786 7.156-21.204 10.578-34.794 10.438-3.812-18.45-11.363-35.934-22.418-51.559-2.394-3.379-7.074-4.183-10.453-1.789a7.5 7.5 0 0 0-1.793 10.453c14.754 20.856 22.555 45.426 22.555 71.059v19.57h-93.898V37.383a123.163 123.163 0 0 1 49.195 24.726 7.478 7.478 0 0 0 4.777 1.723c2.16 0 4.301-.93 5.785-2.723 2.641-3.187 2.192-7.918-1-10.558-17.03-14.094-37.261-23.914-58.761-28.563V17.18c0-9.473-7.704-17.18-17.18-17.18h-24.195c-9.473 0-17.18 7.707-17.18 17.18v4.812c-54.02 11.633-95.082 54.145-106.016 106.895-13.586.136-25.004-3.282-34.785-10.438-16.45-12.027-24.586-29.87-22.324-48.957 1.879-15.887-1.91-26.113-12.672-34.199a12.273 12.273 0 0 0-10.398-2.102 12.141 12.141 0 0 0-8.09 6.692C12.043 50.129 3.648 71.093.887 96.39c-2.965 27.156 1.52 50.683 13.328 69.918a7.495 7.495 0 0 0 10.316 2.468A7.5 7.5 0 0 0 27 158.461c-24.41-39.762-5.219-92.379 1.926-108.95 3.258 3.204 5.37 7.81 4.14 18.22-2.914 24.613 7.422 47.511 28.364 62.828 11.726 8.578 25.625 13.043 41.386 13.32-.41 4.344-.629 8.734-.629 13.172v20.324c-7.03 2.152-12.16 8.703-12.16 16.43v9.605c-15.234-4.707-29.058-11.894-41.168-21.437-3.254-2.563-7.968-2.008-10.53 1.246a7.5 7.5 0 0 0 1.245 10.535 139.013 139.013 0 0 0 26.496 16.402c-9.23 7.742-14.879 19.324-14.879 31.828 0 22.883 18.618 41.5 41.5 41.5.145 0 .29-.011.434-.011-5.344 7.05-11.828 13.379-19.566 17.476a7.497 7.497 0 0 0-3.883 7.883c1.27 7.5 7.277 20.082 21.222 24.438-6.156 12.246-12.824 33.527-1.347 55.937a33.18 33.18 0 0 0-1.239 10.336 15.14 15.14 0 0 0-6.644 5.41l-4.336 6.336a15.125 15.125 0 0 0-2.648 8.36 62.86 62.86 0 0 0-28.832 22.964c-13.254 19.364-14.649 44.278-3.633 65.016a7.494 7.494 0 0 0 5.738 3.93c2.512.296 5.02.445 7.504.445 20.605 0 39.973-10.07 51.8-27.356a62.95 62.95 0 0 0 10.962-34.445 15.098 15.098 0 0 0 7.543-5.766l4.336-6.335a15.099 15.099 0 0 0 2.64-8.149 33.411 33.411 0 0 0 16.64-12.707c.169-.25.329-.5.49-.754 8.632 2.524 15.417 9.356 17.472 18 2.71 11.395 9.386 20.168 19.324 25.371 5.547 2.899 12.277 1.375 16-3.613l4.121-5.531a66.69 66.69 0 0 0 8.176 13.261 66.423 66.423 0 0 0 19.117 16.465 12.617 12.617 0 0 0 12.555.008 66.887 66.887 0 0 0 27.308-29.734l4.125 5.539c3.723 4.98 10.45 6.5 16.012 3.601 9.922-5.199 16.598-13.968 19.309-25.363 2.054-8.652 8.84-15.48 17.472-18 .164.25.317.504.489.75a33.367 33.367 0 0 0 16.64 12.707c.078 2.824.93 5.652 2.64 8.152l4.337 6.336a15.103 15.103 0 0 0 7.539 5.762c.133 8.012 1.789 15.969 4.902 23.348a7.503 7.503 0 0 0 9.828 3.992 7.5 7.5 0 0 0 3.992-9.828 47.866 47.866 0 0 1-3.71-20.238l21.25-14.543a47.942 47.942 0 0 1 23.738 18.156c9.328 13.629 10.937 30.87 4.5 45.879a48.2 48.2 0 0 1-26.133-6.688 7.5 7.5 0 0 0-7.656 12.899c9.73 5.773 20.949 8.812 32.222 8.812 2.446 0 4.899-.144 7.336-.433a7.494 7.494 0 0 0 5.739-3.93c11.015-20.738 9.62-45.649-3.63-65.016a63.08 63.08 0 0 0-28.835-22.976 15.119 15.119 0 0 0-2.649-8.348l-4.336-6.332a15.122 15.122 0 0 0-6.644-5.414 33.272 33.272 0 0 0-1.238-10.332c11.476-22.41 4.808-43.691-1.348-55.941 13.945-4.352 19.953-16.938 21.223-24.434a7.497 7.497 0 0 0-3.883-7.883c-7.738-4.098-14.223-10.426-19.567-17.48.145.004.29.011.434.011 22.883 0 41.5-18.617 41.5-41.5 0-12.761-5.793-24.191-14.887-31.808 14.239-6.75 27.082-15.742 38.387-26.91 50.535-49.95 17.934-128.203 10.887-143.383zM226.086 17.18a2.18 2.18 0 0 1 2.18-2.18h24.195c1.203 0 2.184.977 2.184 2.18V184.12c0 4.145 3.355 7.5 7.496 7.5h111.382c1.204 0 2.18.98 2.18 2.18V218c0 1.2-.976 2.18-2.18 2.18h-266.32c-1.2 0-2.18-.98-2.18-2.18v-24.2c0-1.198.98-2.179 2.18-2.179h111.383a7.5 7.5 0 0 0 7.5-7.5zm45.469 302.629c1.062 0 1.922.863 1.922 1.921v27.606c0 1.059-.86 1.922-1.922 1.922h-9.89v-23.352c2.913-2.152 5.327-4.86 7.21-8.097zM258.789 298.5c0 16.984-7.367 20.465-18.426 20.465-11.058 0-18.425-3.48-18.425-20.465 0-20.535 10.984-43.395 18.425-43.395 7.446 0 18.426 22.86 18.426 43.395zm-49.617 21.309h2.683c1.883 3.238 4.293 5.945 7.211 8.097v23.348h-9.894a1.923 1.923 0 0 1-1.922-1.922V321.73c0-1.058.863-1.921 1.922-1.921zm24.894 13.757c1.996.262 4.094.399 6.297.399s4.301-.137 6.301-.399v17.692h-12.598zm6.297-93.46c-13.656 0-23.836 14.792-29.183 31.859h-21.657c-9.308 0-16.878 7.57-16.878 16.875 0 2.265-1.547 3.32-2.215 3.672-.668.351-2.434 1.035-4.313-.258-13.375-9.2-30.781-25.684-37.879-52.008a7.4 7.4 0 0 0 .008-1.101l-.297-3.97h27.477l45.812 19.614c.961.414 1.961.61 2.946.61a7.499 7.499 0 0 0 6.898-4.551 7.497 7.497 0 0 0-3.941-9.848l-13.606-5.824h93.66L273.59 241a7.497 7.497 0 0 0-3.942 9.848 7.503 7.503 0 0 0 6.899 4.55c.984 0 1.984-.195 2.945-.609l45.813-19.613h27.476l-.297 3.969a7.4 7.4 0 0 0 .008 1.101c-7.097 26.324-24.504 42.809-37.879 52.008-1.883 1.293-3.644.61-4.312.258-.668-.352-2.215-1.407-2.215-3.672 0-9.305-7.57-16.875-16.879-16.875h-21.656c-5.352-17.067-15.528-31.86-29.188-31.86zM211.086 37.378V176.62h-93.899v-19.57c0-57.117 39.083-106.352 93.899-119.672zM92.687 268.48c-14.609 0-26.5-11.886-26.5-26.5 0-11.101 6.977-21.062 17.38-24.878 2.144.699 4.316 1.347 6.511 1.957.55 8.976 8.008 16.12 17.125 16.12h5.7l.382 5.09c.024.29.063.57.117.848-.855 3.09-3.922 13.422-9.648 24.945a26.235 26.235 0 0 1-11.067 2.418zm24.973 160.81c.11.073.137.226.063.339l-4.336 6.336a.232.232 0 0 1-.157.101c-.101.02-.156-.02-.183-.039l-23.274-15.93a.247.247 0 0 1-.062-.34l4.336-6.335a.232.232 0 0 1 .156-.102c.02-.004.035-.004.05-.004.071 0 .11.028.134.043zm-22.777 46.882c-9.332 13.637-24.828 21.383-41.156 20.797a47.736 47.736 0 0 1 4.5-45.887 47.865 47.865 0 0 1 23.742-18.148l21.234 14.535a47.868 47.868 0 0 1-8.32 28.703zm30.55-59.738-21.886-14.98a18.417 18.417 0 0 1 2.965-13.556c5.754-8.406 17.273-10.562 25.68-4.812a18.366 18.366 0 0 1 7.726 11.844c.91 4.855-.125 9.77-2.914 13.84a18.446 18.446 0 0 1-11.57 7.664zm218.294-7.664c-5.754-8.407-3.598-19.93 4.808-25.684a18.375 18.375 0 0 1 13.84-2.914 18.366 18.366 0 0 1 11.844 7.726 18.446 18.446 0 0 1 2.957 13.559l-21.883 14.977a18.407 18.407 0 0 1-11.566-7.664zm47.226 11.328-23.27 15.93c-.03.019-.09.058-.183.038-.102-.02-.14-.074-.156-.101l-4.336-6.336a.24.24 0 0 1 .062-.34l23.27-15.93a.246.246 0 0 1 .344.063l4.336 6.336a.245.245 0 0 1-.067.34zm3.707-109.18c-2.125 4.187-6.805 9.367-16.879 8.848-2.957-.168-5.672 1.433-7.027 4.035a7.515 7.515 0 0 0 .742 8.082c.707.914 15.02 19.699 9.7 41.422-11.22-9.961-28.204-11.442-41.134-2.594-10.636 7.281-15.742 19.656-14.312 31.652-13.3 4.227-23.723 15.035-26.957 28.66-1.535 6.454-4.887 11.344-9.969 14.559l-5.351-7.184a12.638 12.638 0 0 0-11.836-4.953 12.52 12.52 0 0 0-9.989 7.871c-4.086 10.543-11.609 19.516-21.285 25.414a51.354 51.354 0 0 1-13.636-12.062 51.404 51.404 0 0 1-7.645-13.352 12.532 12.532 0 0 0-9.988-7.875 12.655 12.655 0 0 0-11.844 4.961l-5.348 7.18c-5.082-3.223-8.433-8.11-9.965-14.562-3.234-13.606-13.648-24.418-26.94-28.653a33.436 33.436 0 0 0-.337-10.199c-1.644-8.79-6.617-16.41-13.996-21.461-7.379-5.05-16.281-6.918-25.07-5.277-6.067 1.136-11.574 3.855-16.067 7.86-5.308-21.72 8.996-40.493 9.692-41.388a7.5 7.5 0 0 0 .773-8.09 7.495 7.495 0 0 0-7.047-4.046c-10.09.523-14.765-4.676-16.879-8.848 17.621-11.813 28.836-31.914 35.235-47.066 9.898 19.503 24.48 32.62 36.316 40.761a19.148 19.148 0 0 0 19.797 1.176 19.1 19.1 0 0 0 10.23-16.945c0-1.035.84-1.88 1.876-1.88h18.273c-.563 3.966-.856 7.86-.856 11.536 0 2.242.118 4.379.344 6.422-8.445.945-15.031 8.117-15.031 16.812v27.602c0 9.332 7.59 16.922 16.922 16.922h62.383c9.332 0 16.922-7.59 16.922-16.922v-27.602c0-8.695-6.59-15.867-15.032-16.812.227-2.043.344-4.18.344-6.422 0-3.676-.293-7.57-.855-11.535h18.273c1.035 0 1.879.844 1.879 1.879a19.097 19.097 0 0 0 10.226 16.945 19.13 19.13 0 0 0 19.797-1.176c11.836-8.14 26.422-21.258 36.317-40.761 6.398 15.152 17.61 35.253 35.234 47.066zm19.88-68.938c0 14.614-11.888 26.5-26.5 26.5-3.798 0-7.458-.78-10.884-2.324-.054-.027-.113-.043-.172-.07-5.738-11.54-8.808-21.887-9.66-24.969.051-.277.094-.558.117-.847l.383-5.09h5.7c9.117 0 16.574-7.145 17.124-16.125 2.2-.606 4.368-1.262 6.508-1.953 10.137 3.722 17.383 13.472 17.383 24.878zm-17.833-40.582a41.588 41.588 0 0 0-6.004-.82v-6.777c0-7.727-5.129-14.274-12.164-16.426v-20.324c0-4.422-.23-8.813-.64-13.172 15.765-.281 29.667-4.738 41.402-13.32 20.937-15.317 31.277-38.22 28.363-62.829-1.234-10.414.883-15.02 4.14-18.218 8.298 19.18 31.286 82.96-9.312 123.082-13.031 12.879-28.394 22.523-45.785 28.804zm0 0"
        fill="#000000" opacity="1" data-original="#000000" class=""></path></g></svg>