<svg xmlns="http://www.w3.org/2000/svg" version="1.1" x="0" y="0" viewBox="0 0 24 24" style="enable-background:new 0 0 512 512" xml:space="preserve">
    <path d="M8.5 15c-.551 0-1 .449-1 1s.449 1 1 1 1-.449 1-1-.449-1-1-1zm.334.88a.25.25 0 1 1 0-.5.25.25 0 0 1 0 .5zM15.5 15c-.551 0-1 .449-1 1s.449 1 1 1 1-.449 1-1-.449-1-1-1zm.334.88a.25.25 0 1 1 0-.5.25.25 0 0 1 0 .5z" fill="#000000"/>
    <path d="m20.777 4.584-1.5-1a.5.5 0 0 0-.63.063l-.976.975c.172-.564.466-1.196.845-1.523.206.105.424.177.65.177.37 0 .74-.141 1.021-.422.432-.432.707-1.727.805-2.264a.499.499 0 0 0-.582-.582c-.536.099-1.832.374-2.264.805a1.444 1.444 0 0 0-.318 1.552c-.449.404-.768 1-.985 1.584l-.369-1.107a.5.5 0 0 0-.376-.332l-2.5-.5a.496.496 0 0 0-.572.332l-.745 2.232-.927-.927a.5.5 0 0 0-.512-.121l-1.5.5a.5.5 0 0 0-.233.162l-.52.65c-.195-.253-.414-.6-.52-.951C8.613 3.662 9 3.127 9 2.5 9 1.861 8.239.69 7.912.216c-.188-.27-.636-.27-.824 0C6.761.69 6 1.861 6 2.5c0 .667.44 1.227 1.043 1.421.145.744.626 1.39.907 1.717l-.492.614-1.604-1.605A.499.499 0 0 0 5.2 4.6l-2 1.5a.5.5 0 0 0-.2.4c0 .066.006 1.63.553 2.724.652 1.304.81 3.031.977 4.86.11 1.187.221 2.414.483 3.53C6.02 21.911 8.305 24 12 24s5.98-2.089 6.987-6.386c.262-1.116.374-2.343.483-3.53.167-1.829.325-3.556.977-4.86C20.994 8.13 21 6.566 21 6.5V5a.5.5 0 0 0-.223-.416zM8.5 18c-1.64 0-2.424-1.723-2.457-1.797a.503.503 0 0 1 0-.406C6.076 15.724 6.86 14 8.5 14s2.424 1.724 2.457 1.797a.503.503 0 0 1 0 .406C10.924 16.277 10.14 18 8.5 18zm3.5 3.5c-.828 0-1.5-.56-1.5-.92 0-.18.75 0 1.5 0s1.5-.18 1.5 0c0 .36-.672.92-1.5.92zm5.957-5.297C17.924 16.277 17.14 18 15.5 18s-2.424-1.723-2.457-1.797a.503.503 0 0 1 0-.406C13.076 15.724 13.86 14 15.5 14s2.424 1.724 2.457 1.797a.503.503 0 0 1 0 .406z" fill="#000000" opacity="1" />
</svg>