<svg xmlns="http://www.w3.org/2000/svg" version="1.1" width="512"
     height="512" x="0" y="0" viewBox="0 0 64 64" style="enable-background:new 0 0 512 512" xml:space="preserve"
     class=""><g><path fill-rule="evenodd" d="M38 59.938H26.001c-14.36 0-26.001-11.64-26.001-26 0-14.359 11.641-26 26.001-26h1.998a9.963 9.963 0 0 1 2.93-7.07l1.415 1.413A7.971 7.971 0 0 0 30 7.938v.999a1 1 0 1 0 2 0v-.999c0-1.636.658-3.114 1.723-4.198.014-.015.031-.019.046-.034l1.402 1.404A3.981 3.981 0 0 0 34 7.938h4c14.359 0 25.999 11.641 25.999 26 0 14.36-11.64 26-25.999 26zm-36-26C2 45.292 9.897 54.78 20.488 57.275 11.915 53.106 6 44.461 6 34.438 6 22.893 13.829 13.15 24.56 10.01 11.978 10.759 2 21.167 2 33.938zm33.832-22.674c2.117 1.487 3.967 4.174 5.371 7.666l-1.256 2.094c-1.826-5.511-4.702-9.085-7.948-9.085-3.245 0-6.122 3.572-7.948 9.085l-1.256-2.094c1.404-3.492 3.254-6.179 5.371-7.666-11.426 1.8-20.165 11.475-20.165 23.174 0 11.193 7.997 20.542 18.7 22.905-.952-.979-1.831-2.222-2.622-3.668.842.274 1.703.507 2.588.692 1.544 2.248 3.371 3.569 5.333 3.569 1.964 0 3.789-1.321 5.334-3.569a25.536 25.536 0 0 0 2.588-.692c-.789 1.449-1.669 2.688-2.623 3.668C48 54.979 55.998 45.629 55.998 34.438c0-11.699-8.738-21.374-20.166-23.174zm3.605-1.254c10.731 3.14 18.562 12.882 18.562 24.428 0 10.023-5.909 18.669-14.485 22.838 10.588-2.495 18.485-11.983 18.485-23.338 0-12.771-9.981-23.181-22.562-23.928zM51 33.538a1.4 1.4 0 0 1-1.398 1.4H38.399a1.4 1.4 0 0 1-1.399-1.4c0-.237.062-.458.169-.653l5.979-10.46c.088-.146.208-.273.363-.361a.996.996 0 0 1 1.332.348l5.981 10.459c.112.201.176.426.176.667zm-7-8.601-4.504 8.001h9.007zm6.157 13.631c.005 0 .002.004.007.002a.995.995 0 0 1 1.234.688c.04.14.038.281.02.417l-.02.065c-.047.153-.085.311-.139.461l-.023.006c-1.408 4.073-4.776 7.488-9.237 9.566v-1.836h-1.998v2.66A24.2 24.2 0 0 1 32 51.937a24.17 24.17 0 0 1-7.999-1.338v-2.662h-2v1.836c-4.46-2.078-7.829-5.493-9.238-9.566l-.023-.006c-.053-.15-.091-.308-.138-.461l-.017-.057a.976.976 0 0 1 .017-.426.998.998 0 0 1 1.237-.688c.004.002.002-.005.006-.005.174.052.335.108.511.157 4.448 1.247 9.812 2.034 15.644 2.183v3.031h2v-2.999c6.612 0 12.706-.828 17.659-2.217.171-.047.329-.102.498-.151zM34 42.908v2.029a1 1 0 0 1-.999 1h-4a1 1 0 0 1-1.001-1v-2.112c-4.663-.251-9.008-.923-12.824-1.924 1.052 2.159 2.779 4.056 4.968 5.554a.986.986 0 0 1 .857-.518h4a1 1 0 0 1 1.001 1v2.193c1.877.518 3.893.807 5.999.807s4.124-.291 6-.809v-2.191a1 1 0 0 1 1-1h4c.371 0 .684.214.857.515 2.189-1.497 3.916-3.394 4.97-5.554-4.357 1.145-9.404 1.864-14.828 2.01zm-8.398-7.97H14.398a1.4 1.4 0 0 1-1.398-1.4c0-.237.063-.458.17-.653l5.979-10.46a.982.982 0 0 1 .363-.361.991.991 0 0 1 1.334.354l5.984 10.466c.107.196.17.417.17.654a1.4 1.4 0 0 1-1.398 1.4zM20 24.937l-4.503 8.001h9.006zM33.062 2a.989.989 0 0 0-.707.293l-.012-.013L30.941.878a3 3 0 0 1 4.242 4.243l-1.415-1.415A1 1 0 0 0 33.062 2z" clip-rule="evenodd" fill="#000000" opacity="1" data-original="#000000" class=""></path></g></svg>