<svg xmlns="http://www.w3.org/2000/svg" version="1.1" width="512"
     height="512" x="0" y="0" viewBox="0 0 480 480" style="enable-background:new 0 0 512 512" xml:space="preserve"
     class=""><g><path d="M331.344 247.734A207.548 207.548 0 0 0 344 176C344 78.96 279.441 0 200 0S56 78.96 56 176a207.548 207.548 0 0 0 12.656 71.734C28.062 295.297 0 360.13 0 407.04 0 455.441 29.602 480 88 480h224c58.398 0 88-24.559 88-72.96 0-46.911-28.063-111.743-68.656-159.306zm-40.625-72.214A110.25 110.25 0 0 0 280 179.44C279.04 258.481 244.238 320 200 320s-79.04-61.52-80-140.559a110.25 110.25 0 0 0-10.719-3.921C96.961 171.44 87.2 168.238 88 159.28 94.559 86.72 142.719 32 200 32s105.441 54.719 112 127.281c.8 8.957-8.96 12.16-21.281 16.239zm0 0" fill="#000000" opacity="1" data-original="#000000" class=""></path><path
        d="M200 152c-14.8 0-32 12.559-32 48 0 17.68 7.68 80 32 80s32-62.32 32-80c0-35.441-17.2-48-32-48zM255.543 101.121a57.119 57.119 0 0 1-8.238-14.723c-3.032-6.796-5.922-13.277-12.72-14.32a9.46 9.46 0 0 0-1.523-.078 13.187 13.187 0 0 0-10 5.36c-11.117 12.96-8.878 35.761 5.043 52a38.753 38.753 0 0 0 28.48 14.64 25.027 25.027 0 0 0 19.278-8.719 14.31 14.31 0 0 0 4-11.761c-1.039-6.399-6.633-9.758-12-12.961a49.638 49.638 0 0 1-12.32-9.438zM171.895 129.36c13.921-16.239 16.16-39.04 5.042-52a12.727 12.727 0 0 0-11.523-5.282c-6.797 1.043-9.687 7.524-12.719 14.32a57.119 57.119 0 0 1-8.238 14.723 49.638 49.638 0 0 1-12.32 9.438c-5.367 3.203-10.961 6.562-12 12.96a14.31 14.31 0 0 0 4 11.762A25.027 25.027 0 0 0 143.414 144a38.753 38.753 0 0 0 28.48-14.64zm0 0"
        fill="#000000" opacity="1" data-original="#000000" class=""></path></g></svg>