<?xml version="1.0" encoding="UTF-8" standalone="no"?>
<!DOCTYPE svg PUBLIC "-//W3C//DTD SVG 1.1//EN" "http://www.w3.org/Graphics/SVG/1.1/DTD/svg11.dtd">
<svg width="100%" height="100%" viewBox="0 0 1032 1032"
     version="1.1" xmlns="http://www.w3.org/2000/svg" xml:space="preserve"
     style="fill-rule:evenodd;clip-rule:evenodd;stroke-linejoin:round;stroke-miterlimit:2;">
    <path d="M414.791,46.694c1.619,-1.909 59.422,-69.11 120.981,-4.535c55.438,58.155 -19.772,117.007 -19.772,117.007c0,0 -92.322,96.78 -100.37,97.324c-0.3,0.02 -0.579,-0.007 -0.839,-0.077c-0.26,0.07 -0.539,0.097 -0.838,0.077c-8.048,-0.544 -100.37,-97.324 -100.37,-97.324c-0,0 -75.211,-58.852 -19.772,-117.007c61.559,-64.575 119.362,2.626 120.98,4.535Zm0,176.228l84.792,-84.741c0,0 56.59,-42.994 16.417,-79.91c-47.609,-43.748 -101.041,24.085 -101.041,24.085l-0.168,-29.495l-0.167,29.495c-0,0 -53.432,-67.833 -101.041,-24.085c-40.173,36.916 16.417,79.91 16.417,79.91l84.791,84.741Z"/>
    <path d="M700.365,836.488l44.588,-115.049c-0,0 31.717,-55.481 -24.137,-77.851c-54.649,-21.888 -72.864,25.879 -72.864,25.879l-67.161,160.132l67.161,-160.132c0,0 43.668,-70.474 -13.608,-96.45c-59.127,-26.815 -74.445,26.252 -74.445,26.252l-70.505,166.621l80.121,-193.386c0,0 13.808,-55.564 -29.823,-68.203c-43.63,-12.638 -73.415,24.239 -73.415,24.239l-67.364,179.237l143.975,-368.758c0,-0 20.301,-51.225 -26.888,-68.101c-47.188,-16.877 -74.338,30.329 -74.338,30.329l-181.156,444.945c0,0 93.456,194.333 222.859,255.484c129.404,61.151 220.142,12.889 258.029,-43.042c74.71,-110.292 -13.209,-191.147 -13.209,-191.147l-27.82,69.001Zm-352.635,-304.53l-72.732,-156.548c0,-0 -7.962,-48.267 30.636,-65.381c42.483,-18.836 61.887,19.409 61.887,19.409l36.554,64.129l-56.345,138.391Zm330.888,298.37l48.741,-126.984c-0,0 11.633,-27.169 -14.826,-37.36c-31.718,-12.217 -40.066,8.012 -40.066,8.012l-71.007,167.067c-13.129,21.033 -57.025,8.918 -41.633,-18.983l73.193,-173.38c-0,-0 19.6,-42.683 -9.311,-54.822c-34.596,-14.526 -40.022,11.03 -40.022,11.03l-74.398,174.44c-11.295,18.934 -52.599,4.921 -42.075,-20.736l80.191,-191.712c-0,0 9.449,-31.217 -15.596,-40.1c-23.66,-8.391 -42.501,12.152 -42.501,12.152l-66.73,173.471c-10.657,27.203 -56.832,19.454 -44.214,-15.705l140.415,-354.807c0,-0 16.585,-38.476 -12.082,-48.563c-34.624,-12.183 -47.589,30.089 -47.589,30.089l-172.191,421.54c-0,-0 74.319,173.033 203.722,234.184c129.404,61.15 201.514,9.869 224.166,-23.726c65.742,-97.498 19.001,-137.943 19.001,-137.943l-11.063,29.079c-10.949,19.348 -52.044,14.945 -44.125,-16.243Zm-332.89,-355.956l-46.55,-102.384c-11.649,-38.986 31.915,-58.291 49.399,-29l29.387,52.863l-32.236,78.521Z"/>
</svg>
