<svg xmlns="http://www.w3.org/2000/svg" version="1.1" width="512"
     height="512" x="0" y="0" viewBox="0 0 24 24" style="enable-background:new 0 0 512 512" xml:space="preserve"
     class=""><g><path d="M20.164 3.836A7.547 7.547 0 0 0 8.987 13.952l-7.142 7.143a.75.75 0 1 0 1.06 1.06l7.143-7.142A7.548 7.548 0 0 0 20.164 3.836zm-.747 7.41c-.722 1.5-2.25 2.734-4.252 2.734-.75 0-1.564-.172-2.428-.568-2.61-1.194-2.64-3.026-2.53-3.759.202-1.365 1.348-2.568 2.609-2.739 1.04-.14 1.667.196 2.013.504.747.665.75 1.657.749 1.769-.008.414-.386.721-.764.736a.75.75 0 0 1-.736-.756c0-.02-.015-.428-.251-.633-.161-.14-.434-.186-.809-.134-.547.075-1.21.684-1.328 1.473-.126.852.467 1.624 1.67 2.176 2.267 1.037 3.997.018 4.705-1.454.756-1.572.473-3.815-1.935-5.029-1.911-.965-3.573-.562-4.629-.055-.995.477-1.891 1.278-2.535 2.194a6.006 6.006 0 0 1 1.585-2.808 6.04 6.04 0 0 1 1.863-1.268c1.468-.31 2.983-.112 4.392.598 3.163 1.594 3.708 4.738 2.611 7.018z" fill="#000000" opacity="1" data-original="#000000"></path></g></svg>