<svg xmlns="http://www.w3.org/2000/svg" version="1.1" x="0" y="0" viewBox="0 0 128 128"
     style="enable-background:new 0 0 512 512" xml:space="preserve">
    <path d="M111.48 49.66A2 2 0 0 0 110 49a3 3 0 0 1-2.25-1 3.08 3.08 0 0 1-.83-2.34A43.05 43.05 0 0 0 66.14.05 43 43 0 0 0 21 43q0 1.35.09 2.73A3.09 3.09 0 0 1 18 49a2 2 0 0 0-2 2.19l3 31a2 2 0 0 0 .64 1.29L30 92.88V105a2 2 0 0 0 .52 1.34l19 21A2 2 0 0 0 51 128h28a2 2 0 0 0 1.52-.7l18-21A2 2 0 0 0 99 105V92.83l9.41-9.42a2 2 0 0 0 .58-1.22l3-31a2 2 0 0 0-.51-1.53ZM32 48.92c.65-5.55 1.4-11.84 2.81-15.13v-.12a.61.61 0 0 0 .05-.12c0-.06 1.92-6.56 5.49-10.14a49.26 49.26 0 0 1 6.51-5.32l8.24 24.54A2 2 0 0 0 57 44h14a2 2 0 0 0 1.9-1.37l8.18-24.54a49.26 49.26 0 0 1 6.51 5.32c3.11 3.11 4.94 8.43 5.38 9.8a2 2 0 0 0 .14.58c1.42 3.29 2.16 9.58 2.81 15.13.62 5.21 1.07 8.76 1.83 11l-4.61 2.3C92.21 62.6 75.19 70 64 70c-11 0-27.66-7.16-29.08-7.78l-4.59-2.75A70.36 70.36 0 0 0 32 48.92ZM92 67v2c0 2.41-.66 3.45-2.63 4.1-2.69.9-8.55.9-11.37.9-1.13 0-1.62-.94-1.83-1.76A125.07 125.07 0 0 0 92 67Zm-56 0a125.07 125.07 0 0 0 15.83 5.23c-.21.82-.7 1.76-1.83 1.76-2.82 0-8.68 0-11.37-.9-2-.65-2.63-1.69-2.63-4.1Zm-6.6-3.43 2.6 1.56V69c0 4.11 1.76 6.69 5.37 7.9C40.68 78 46.74 78 50 78s5.08-2.23 5.74-4.9A44.62 44.62 0 0 0 64 74a44.62 44.62 0 0 0 8.26-.9c.66 2.67 2.6 4.9 5.74 4.9s9.32 0 12.63-1.1C94.24 75.69 96 73.11 96 69v-3.76L98.55 64a79.71 79.71 0 0 1-1.43 13c-2.73 2.36-14.85 12.91-17.58 15.64s-4.67 7.66-5.31 11.41H53.72c-.64-3.75-2.45-8.56-5.31-11.41S33.56 79.31 30.84 77a76.73 76.73 0 0 1-1.44-13.42ZM64 108h9.94c-.1 3.8-.62 12.24-.86 16H54.87c-.24-3.76-.76-12.2-.86-16Zm22.71-16.59c-1.62 3.32-3.15 6.59-3.61 8a56.12 56.12 0 0 1-2.25 5.41l-2.62-.44c.63-3.46 2.27-7.06 4.14-8.93.77-.81 2.39-2.29 4.34-4.04Zm-41.12 4c1.85 1.86 3.49 5.44 4.13 8.9l-3.23.46c-.4-1.47-1-3.59-1.59-5.4-.44-1.31-1.43-4.09-2.41-6.84 1.38 1.25 2.51 2.28 3.1 2.88Zm59.49-14.32-9.49 9.5A2 2 0 0 0 95 92v12.26L78.08 124h-1c.24-3.81.73-11.69.84-15.65l3.74.62a1.84 1.84 0 0 0 .33 0 2 2 0 0 0 1.79-1.11 69.14 69.14 0 0 0 3.11-7.26c.77-2.31 5.83-12.4 7.82-16.29 3.06-2.68 5.48-4.78 5.54-4.83a2 2 0 0 0 .66-1.13c.48-2.52 2.81-15.29.82-19.27-.77-1.54-1.32-6.18-1.84-10.66-.7-5.89-1.42-12-3-15.83a1.22 1.22 0 0 0 0-.17c-.08-.31-2.19-7.55-6.51-11.86A54.33 54.33 0 0 0 81 13.29a2 2 0 0 0-2.93 1.08L69.56 40H58.44L49.9 14.37a2 2 0 0 0-1.21-1.25 2 2 0 0 0-1.72.17 54.33 54.33 0 0 0-9.38 7.3c-4.13 4.12-6.23 10.91-6.48 11.76-1.6 3.84-2.34 10.07-3.05 16.1-.53 4.48-1.08 9.12-1.85 10.66-2 4 .34 16.75.83 19.27a1.94 1.94 0 0 0 .65 1.13c.08.07 4.21 3.65 8.53 7.45.63 1.73 4 11 4.88 13.67 1 2.89 1.95 6.82 2 6.86A2 2 0 0 0 45 109h.28l4.72-.7c.1 3.56.51 10.38.77 14.49L34 104.23V92a2 2 0 0 0-.65-1.48L22.92 81l-2.75-28.34a7.07 7.07 0 0 0 4.91-7.19C25 44.65 25 43.81 25 43A39 39 0 0 1 65.94 4.05a38.95 38.95 0 0 1 37 41.39 7.14 7.14 0 0 0 4.91 7.23Z"
          fill="#000000"/>
</svg>