<svg xmlns="http://www.w3.org/2000/svg" version="1.1" width="512"
     height="512" x="0" y="0" viewBox="0 0 512 512" style="enable-background:new 0 0 512 512" xml:space="preserve"
     class="">
    <path d="M482.784 408.899a55.032 55.032 0 0 0-41.266-42.733l-185.605-37.781-185.696 37.506c-21.257 6.355-37.185 24.044-41.266 45.851l-7.978 39.89c149.383 68.135 320.957 68.135 470.34 0l-8.529-42.733z"
          style="" fill="#000000"/>
    <path
            d="m441.518 396.703-185.605-37.781-185.696 37.506a59.605 59.605 0 0 0-41.266 45.851l-2.384 11.738c146.146 65.017 313.007 65.017 459.152 0l-2.934-14.489a55.029 55.029 0 0 0-41.267-42.825z"
            style="" fill="#000000"/>
    <path
            d="m187.229 322.699-9.17 25.218c17.148 23.384 35.489 29.895 59.515 33.655v-16.14a17.785 17.785 0 0 0-12.105-16.415 96.761 96.761 0 0 1-38.24-26.318z"
            style="" fill="#000000"/>
    <path
            d="M237.573 390.742c-.468 0-.945-.037-1.421-.11-26.603-4.163-46.832-11.857-65.494-37.286a9.18 9.18 0 0 1-1.229-8.565l9.17-25.218a9.2 9.2 0 0 1 6.896-5.878c3.191-.587 6.437.514 8.574 2.916 9.409 10.592 21.376 18.836 34.618 23.824 10.39 3.503 17.763 13.499 18.038 24.76v16.378a9.177 9.177 0 0 1-3.21 6.969 9.032 9.032 0 0 1-5.942 2.21zm-49.18-44.42c11.72 14.471 23.907 20.615 40.01 24.228v-5.117c-.092-3.375-2.448-6.575-5.869-7.73-11.591-4.365-22.256-10.647-31.536-18.533l-2.605 7.152z"
            style="" fill="#000000"/>
    <path
            d="M280.132 276.023c-.11 0-.202 0-.303-.009a356.624 356.624 0 0 0-45.897 0c-2.522.266-4.704-1.751-4.869-4.283a4.58 4.58 0 0 1 4.282-4.869c15.617-1 31.463-1 47.08 0a4.598 4.598 0 0 1 4.282 4.869c-.173 2.421-2.191 4.292-4.575 4.292zM265.359 294.088h-18.34a4.587 4.587 0 0 1-4.585-4.585 4.587 4.587 0 0 1 4.585-4.585h18.34a4.587 4.587 0 0 1 4.585 4.585 4.587 4.587 0 0 1-4.585 4.585zM178.425 170.382c21.091-10.546 59.606 1.742 67.218 9.17 14.306 14.306-9.17 34.113-35.03 34.113s-53.279-32.829-32.188-43.283zM333.677 170.382c-21.091-10.546-59.606 1.742-67.218 9.17-14.306 14.306 9.17 34.113 35.03 34.113 25.86.001 53.279-32.829 32.188-43.283z"
            style="" fill="#000000"/>
    <path
            d="M237.573 181.753h36.681v9.17h-36.681z" style="" fill="#000000" opacity="1"/>
    <path
            d="M182.368 295.372h18.34v33.013h-18.34zM256.005 512c-81.468 0-162.945-17.35-238.838-52.032a9.167 9.167 0 0 1-5.172-10.188l8.253-39.89c4.713-25.126 22.971-45.42 47.621-52.784l110.794-23.118 3.741 17.946L72.363 374.86c-17.286 5.2-30.656 20.055-34.122 38.57l-6.795 32.848c143.156 63.164 306.01 63.174 449.166-.027l-6.548-32.71c-3.457-18.652-16.809-33.499-34.883-38.854l-109.309-22.742 3.741-17.946 110.042 22.926c25.447 7.51 43.724 27.813 48.409 53.16l7.951 39.753a9.164 9.164 0 0 1-5.172 10.133C418.951 494.65 337.473 512 256.005 512z"
            style="" fill="#000000"/>
    <path
            d="m324.598 322.699 9.17 25.218c-16.873 23.384-35.305 29.895-59.606 33.655v-16.14a17.51 17.51 0 0 1 12.105-16.415 96.58 96.58 0 0 0 38.331-26.318z"
            style="" fill="#000000"/>
    <path
            d="M274.162 390.742a9.141 9.141 0 0 1-5.97-2.21 9.135 9.135 0 0 1-3.2-6.96v-16.14c.156-11.545 7.556-21.596 18.432-25.136 12.912-4.842 24.915-13.077 34.315-23.677 2.146-2.412 5.42-3.503 8.583-2.916a9.167 9.167 0 0 1 6.896 5.878l9.17 25.218a9.172 9.172 0 0 1-1.183 8.501c-18.395 25.484-38.762 33.187-65.631 37.35-.476.056-.944.092-1.412.092zm46.667-51.573a106.212 106.212 0 0 1-31.353 18.432c-3.778 1.238-6.098 4.383-6.144 7.941v5.025c16.286-3.604 28.538-9.739 40.11-24.209l-2.613-7.189z"
            style="" fill="#000000"/>
    <path
            d="M311.026 295.372h18.34v33.013h-18.34z" style="" fill="#000000" opacity="1"/>
    <path
            d="M256.189 252.639c-3.329 0-6.813-1.146-10.17-2.265-2.898-.954-5.906-1.953-8.171-1.953a4.587 4.587 0 0 1-4.585-4.585 4.587 4.587 0 0 1 4.585-4.585c3.751 0 7.455 1.229 11.059 2.421 2.669.89 5.429 1.797 7.281 1.797 1.935 0 4.897-.954 7.758-1.889 3.54-1.146 7.199-2.329 10.582-2.329a4.587 4.587 0 0 1 4.585 4.585 4.587 4.587 0 0 1-4.585 4.585c-1.935 0-4.897.954-7.758 1.889-3.539 1.137-7.198 2.329-10.581 2.329z"
            style="" fill="#000000"/>
    <path
            d="M251.429 342.406c-14.681 0-28.849-4.998-40.349-14.324-10.335-7.932-20.486-16.754-29.996-26.08-7.134-7.575-11.976-16.607-14.251-26.383l-5.071-29.583c-10.271-4.182-18.927-17.882-24.494-39.322-4.301-16.699-4.365-40.505 5.621-53.389 2.549-3.292 5.594-5.731 9.023-7.263v-15.846c0-32.582 7.575-55.975 23.164-71.537 16.754-16.736 41.697-24.2 80.845-24.2h.458c51.372.083 103.889 11.518 103.889 95.737v15.901c3.274 1.513 6.199 3.879 8.648 7.052 10.023 12.939 9.895 36.956 5.539 53.802-6.025 21.623-14.553 35.113-24.558 39.294L345 275.261c-2.439 10.271-7.208 19.267-13.939 26.584a328.12 328.12 0 0 1-30.436 26.401c-12.692 9.922-28.584 14.957-44.751 14.003a59.579 59.579 0 0 1-4.445.157zM169.906 228.98c4.383 0 8.088 3.173 8.849 7.63l6.052 35.388c1.431 6.098 4.713 12.224 9.381 17.176a314.06 314.06 0 0 0 28.244 24.512c9.363 7.575 20.871 11.16 32.673 10.234a7.842 7.842 0 0 1 1.32-.009c11.885.789 23.613-2.843 33.004-10.179a307.044 307.044 0 0 0 28.492-24.65c4.273-4.668 7.547-10.839 9.134-17.488l5.841-34.7c.816-4.824 5.163-8.152 10.161-7.575 1.926-.504 8.391-8.033 13.709-27.107 3.686-14.315 2.669-31.353-2.338-37.818-1.357-1.751-2.43-1.907-3.32-1.907a9.167 9.167 0 0 1-9.17-9.17v-23.1c0-56.323-23.191-77.305-85.576-77.397h-.44c-33.893 0-54.829 5.814-67.869 18.836-11.967 11.949-17.781 31.105-17.781 58.561v23.109c0 5.062-4.108 9.17-9.17 9.17-1.265 0-2.384.348-3.705 2.054-4.979 6.428-6.043 23.274-2.366 37.57 5.025 19.349 11.848 26.511 13.755 26.933a9.373 9.373 0 0 1 1.12-.073zM237.573 367.817h36.589v18.34h-36.589z"
            style="" fill="#000000"/>
    <path
            d="M250.228 0c-17.423 0-28.153 9.17-40.624 25.86h-17.332a23.447 23.447 0 0 0-16.781 6.969l-13.48 13.022a55.034 55.034 0 0 0-16.14 39.065v78.222a39.551 39.551 0 0 1 17.057 23.476c2.201 6.236 5.594 13.297 10.546 13.297 0 0-4.127-42.825 5.686-61.349a14.498 14.498 0 0 0 1.376-10.179 35.019 35.019 0 0 1 8.528-35.489 41.902 41.902 0 0 1 39.432-11.554c13.205 4.769 16.69 9.17 27.511 9.17 10.821 0 14.306-4.402 27.511-9.17a41.64 41.64 0 0 1 39.432 11.554 35.038 35.038 0 0 1 8.62 35.489 14.481 14.481 0 0 0 1.192 10.546c9.812 18.34 5.961 61.349 5.686 61.349 4.952 0 8.345-7.061 10.546-13.297a37.356 37.356 0 0 1 16.506-22.834V85.65C365.864 36.681 286.909 0 250.228 0z"
            style="" fill="#000000"/>
    <path
            d="M237.298 75.379a45.955 45.955 0 0 1-4.769-17.332 55.86 55.86 0 0 1 1.376-18.34 45.345 45.345 0 0 1 7.978-16.69 32.916 32.916 0 0 1 14.672-10.729 107.732 107.732 0 0 0-8.62 15.223 86.555 86.555 0 0 0-5.135 15.131 329.568 329.568 0 0 0-5.502 32.737zM255.822 41.724a22.47 22.47 0 0 1 9.17-17.24 29.043 29.043 0 0 1 9.17-4.677 22.275 22.275 0 0 1 9.812-1.009c-5.135 4.31-9.812 7.428-14.306 11.004a171.403 171.403 0 0 0-13.846 11.922z"
            style="" fill="#000000"/>
    <path
            d="M237.298 75.379a34.383 34.383 0 0 1-13.113-11.188 35.26 35.26 0 0 1-6.694-16.506 29.672 29.672 0 0 1 3.118-17.698 30.054 30.054 0 0 1 11.279-12.196 118.365 118.365 0 0 0-4.86 15.039 38.54 38.54 0 0 0-.734 14.122 81.292 81.292 0 0 0 11.004 28.427zM235.556 73.362c-7.795-7.061-14.397-13.664-21.642-19.441a109.932 109.932 0 0 0-11.279-8.07c-3.851-2.751-8.07-4.86-12.655-7.795a31.777 31.777 0 0 1 15.773 1.284 45.223 45.223 0 0 1 13.939 7.703 51.675 51.675 0 0 1 10.362 11.921 36.746 36.746 0 0 1 5.502 14.398z"
            style="" fill="#000000"/>
    <path
            d="M235.556 73.362c-11.188-3.76-21.091-8.253-31.27-11.646a150.597 150.597 0 0 0-15.314-4.31 110.923 110.923 0 0 0-16.506-1.834 33.116 33.116 0 0 1 17.057-5.319 55.005 55.005 0 0 1 17.698 2.751 64.25 64.25 0 0 1 15.773 8.07 50 50 0 0 1 12.562 12.288z"
            style="" fill="#000000"/>
    <path
            d="M235.556 73.362a198.826 198.826 0 0 0-36.681-6.144 96.103 96.103 0 0 0-17.79.734 180.62 180.62 0 0 0-18.34 3.668 42.244 42.244 0 0 1 16.69-10.637 50.798 50.798 0 0 1 19.899-2.843 56.485 56.485 0 0 1 19.441 4.31 47.505 47.505 0 0 1 16.781 10.912zM274.254 436.96c0-5.062 4.108-9.17 9.17-9.17s9.17 4.108 9.17 9.17-4.108 9.17-9.17 9.17-9.17-4.108-9.17-9.17zM274.254 475.2c0-5.062 4.108-9.17 9.17-9.17s9.17 4.108 9.17 9.17-4.108 9.17-9.17 9.17-9.17-4.108-9.17-9.17zM251.328 397.162h9.17V502.72h-9.17z"
            style="" fill="#000000"/>
</svg>