<svg xmlns="http://www.w3.org/2000/svg" version="1.1" width="512"
     height="512" x="0" y="0" viewBox="0 0 64 64" style="enable-background:new 0 0 512 512" xml:space="preserve"
     class=""><g><path d="M44.37 22.746c.048-1.746 1.079-2.395 1.284-3.849a12.933 12.933 0 0 0-4.765-11.454A13.466 13.466 0 0 0 32 4.969a13.466 13.466 0 0 0-8.889 2.474 12.933 12.933 0 0 0-4.765 11.454c.205 1.454 1.236 2.103 1.283 3.85.06 2.23-2.036 2.87-1.833 4.856a3.682 3.682 0 0 0 1.925 2.84c1.528.727 3.818-1.352 4.799 3.896a2.211 2.211 0 0 0 1.093 1.542A12.127 12.127 0 0 0 32 37.316a12.127 12.127 0 0 0 6.387-1.435 2.211 2.211 0 0 0 1.093-1.542c.98-5.248 3.271-3.17 4.8-3.895a3.682 3.682 0 0 0 1.924-2.841c.203-1.985-1.893-2.627-1.833-4.857zm-17.212 3.826c-.7.128-2.904.434-4.121-.742-1.405-1.358-1.02-4.3.05-5.273 1.009-.916 2.764-.681 3.891-.512a3.773 3.773 0 0 1 3.072 1.74c.589 1.05-.166 2.573-.23 2.714a3.408 3.408 0 0 1-2.662 2.073zm7.03 6.377c-.491.3-1.468.008-2.192-.704-.723.712-1.693 1.004-2.185.704-.591-.36-.559-1.49-.333-2.037a18.585 18.585 0 0 1 1.676-3.171c.252-.355.493-.32.846-.07.353-.25.594-.285.846.07a18.585 18.585 0 0 1 1.676 3.171c.226.547.258 1.677-.333 2.037zm6.775-7.12c-1.217 1.177-3.422.87-4.12.743A3.408 3.408 0 0 1 34.18 24.5c-.064-.141-.819-1.664-.23-2.713a3.773 3.773 0 0 1 3.072-1.74c1.127-.17 2.882-.405 3.89.511 1.07.973 1.456 3.915.051 5.273zM25.4 47.89c1.55.72 2.94 1.37 4.2 1.95-7.08 3.27-7.9 3.68-8.61 5.46a11.265 11.265 0 0 1-1.46 2.97 2.624 2.624 0 0 1-4.36-1.04 5.131 5.131 0 0 1 .02-2.33.376.376 0 0 0-.21-.49c-3.18-1.25-2.67-4.81-.26-5.44 1.47-.38 3.09.73 4.64.81 1.07.05 3.33-.74 6.04-1.89zM48.94 44.58c-2.1.14-2.55-1-4.7-.91a7.334 7.334 0 0 0-2.68.6c-1.06.5-2.06.98-3.01 1.42-1.36-.6-2.82-1.27-4.23-1.93 1.77-.86 3.41-1.67 4.75-2.31a13.804 13.804 0 0 0 3.2-2.15c1.15-1.5.73-3.43 2.58-4.51 1.34-.79 4.64-.38 3.85 3.64a.75.75 0 0 0 .48.87 3.487 3.487 0 0 1 2.02 2.15 2.762 2.762 0 0 1-2.26 3.13z" fill="#000000" opacity="1" data-original="#000000" class=""></path><path
        d="M49.02 54.41a.376.376 0 0 0-.21.49 5.131 5.131 0 0 1 .02 2.33 2.624 2.624 0 0 1-4.36 1.04 11.265 11.265 0 0 1-1.46-2.97c-.993-2.494-2.24-2.323-20.57-11.03a7.334 7.334 0 0 0-2.68-.6c-2.15-.09-2.6 1.05-4.7.91a2.762 2.762 0 0 1-2.26-3.13 3.487 3.487 0 0 1 2.02-2.15.75.75 0 0 0 .48-.87c-.79-4.02 2.51-4.43 3.85-3.64 1.85 1.08 1.43 3.01 2.58 4.51 1.153 1.537 19.946 10.61 22.91 10.48 1.55-.08 3.17-1.19 4.64-.81 2.41.63 2.92 4.19-.26 5.44z"
        fill="#000000" opacity="1" data-original="#000000" class=""></path></g></svg>