<svg xmlns="http://www.w3.org/2000/svg" version="1.1" width="512"
     height="512" x="0" y="0" viewBox="0 0 24 24" style="enable-background:new 0 0 512 512" xml:space="preserve"
     class=""><g><g fill="#000" data-name="Darth Vader"><path d="M11.5 17h1v3h-1zM10.5 20v-2L9 20zM13.5 20H15l-1.5-2z" fill="#000" opacity="1" data-original="#000" class=""></path><path
        d="m23.82 18.9-2.82-8c0-6.26-3.7-9.17-7.07-9.83A1.5 1.5 0 0 0 12.5 0h-1A1.5 1.5 0 0 0 10 1.5V5a.5.5 0 0 1-1 0V2.07a.5.5 0 0 0-.7-.46C5 3.09 3 6.47 3 10.91l-2.82 8a3.18 3.18 0 0 0 2.29 4.16A44.1 44.1 0 0 0 12 24a44.1 44.1 0 0 0 9.52-.94 3.18 3.18 0 0 0 2.29-4.16zM6 12.5A1.34 1.34 0 0 1 7.5 11a10.06 10.06 0 0 1 2.5.37v1.35a5 5 0 0 1-2 .78c-.91 0-2-.45-2-1zm10 9a1 1 0 0 1-.85-.5h-6.3a1 1 0 0 1-.85.5 1 1 0 0 1 0-2h.11l2.39-3.19v-.81a1.5 1.5 0 0 1 3 0v.83l2.39 3.19H16a1 1 0 0 1 0 2zm-2-8.78v-1.35a10.06 10.06 0 0 1 2.5-.37 1.34 1.34 0 0 1 1.5 1.5c0 .55-1.09 1-2 1a5 5 0 0 1-2-.78zM22.65 21a.5.5 0 0 1-.63-.33l-3-9.5A2.87 2.87 0 0 0 16 9a5 5 0 0 0-2.27.27 2.6 2.6 0 0 1-1.25.23h-.91a2.42 2.42 0 0 1-1.21-.23A4.54 4.54 0 0 0 8.19 9a2.73 2.73 0 0 0-2.86 2.09l-.08.23a2.59 2.59 0 0 0-.14.4L2 20.67a.5.5 0 0 1-.5.33.49.49 0 0 1-.17 0 .5.5 0 0 1-.33-.67l3.33-9.5A3.72 3.72 0 0 1 8.19 8a5.41 5.41 0 0 1 2.57.36 1.47 1.47 0 0 0 .78.14h.91a1.64 1.64 0 0 0 .84-.14A5.87 5.87 0 0 1 16 8a3.87 3.87 0 0 1 4 2.9l3 9.45a.5.5 0 0 1-.35.65z"
        fill="#000" opacity="1" data-original="#000" class=""></path></g></g></svg>