<svg xmlns="http://www.w3.org/2000/svg" version="1.1" width="512"
     height="512" x="0" y="0" viewBox="0 0 512 512" style="enable-background:new 0 0 512 512" xml:space="preserve"
     class=""><g><path d="M458.5 73.5s10-10 10-35c0 0-5-15-15-15s-35 35-45 35-20 5-30 15-20 20-30 20-30 15-40 0c0 0 0 25 25 30 0 0-15 15-55 35 0 0-35-5-60 10h-85s-80-5-110 105v90s30-5 40-35v-10s0-10 5-10 15 45-35 85v30s-5 40 30 65h25s10 0 10-10-15-25-30-30c0 0-10-10 0-40 0 0 10-30 30-45s30-40 30-40v30s-5 30-20 40c0 0-5 50 35 80h40s0-25-20-25h-10s-10-20-10-40 30-100 55-115c0 0 25 10 50 10s45-5 45-5v65s5 20 5 30v60s0 15 20 25h15s10 0 10-10c0 0 0-10-15-15 0 0-10-10-10-20s0-70 20-85c0 0 5 65 15 95 0 0 0 20 20 25h25s0-20-15-25c0 0-10-5-10-20v-60s40-65 40-125c0 0 25-30 35-80v-30s0-15 15-25 25-10 25-25c0 0 0-10-15-5s-15 0-15 0z" fill="#000000" opacity="1" data-original="#000000"></path></g></svg>