<svg xmlns="http://www.w3.org/2000/svg" version="1.1" viewBox="0 0 333.33 333.33"
     style="enable-background:new 0 0 512 512" xml:space="preserve" fill-rule="evenodd">
    <path d="M212.02 330s38.26-26.63 37.03-75.6c-24.36-23.61-15.91-56.02 20.76-59.7 0 0 16.57-72.53-7.02-96.76 0 0-6.54 16.89-25.19 16.42-18.65-.48-70.95-29-70.95-29s-52.3 28.52-70.95 29-25.19-16.42-25.19-16.42c-23.59 24.23-7.01 96.76-7.01 96.76 36.67 3.69 45.12 36.09 20.76 59.7-1.22 48.97 37.03 75.6 37.03 75.6h12.91l12.77-30.61-12.74-105.21c-35.7-.96-47.65-49.74-47.65-49.74h52.57l16.4 17.26-5.88 40.17 16.99 17.54 16.99-17.54-5.88-40.17 16.4-17.26h52.57s-11.95 48.78-47.65 49.74l-12.74 105.21L199.12 330h12.91zM187.37 59.58l11.09-56.24h-63.61l11.1 56.24h41.41zm13.72-20.04c24.76 10.91 43.36 33.23 49.15 60.3-3.22 3.21-7.7 5.06-12.39 4.94-13.65-.35-53.55-20.72-66.61-27.83l-4.59-2.5-4.59 2.5c-13.06 7.11-52.96 27.48-66.61 27.83-4.69.12-9.17-1.73-12.39-4.93 5.79-27.07 24.39-49.39 49.15-60.3l5.85 29.63h57.18l5.84-29.63z"
          fill="#000000"/>
</svg>