<?xml version="1.0" encoding="UTF-8" standalone="no"?><!DOCTYPE svg PUBLIC "-//W3C//DTD SVG 1.1//EN"
        "http://www.w3.org/Graphics/SVG/1.1/DTD/svg11.dtd">
<svg width="100%" height="100%" viewBox="0 0 512 512" version="1.1" xmlns="http://www.w3.org/2000/svg"
     xml:space="preserve"
     style="fill-rule:evenodd;clip-rule:evenodd;stroke-linecap:round;stroke-linejoin:round;stroke-miterlimit:10;"><path d="M104.28,501.996l16.844,-16.845l29.804,-1.613c15.771,-0.853 30.683,-7.508 41.851,-18.676l29.168,-29.168c10.333,-10.333 10.333,-27.087 -0,-37.419l-7.406,-7.406m0,-0l9.469,-9.469c6.386,-6.386 7.777,-16.428 2.906,-24.034c-6.666,-10.407 -20.991,-11.136 -29.374,-3.166l6.248,-6.248c7.41,-7.41 7.41,-19.423 0,-26.833c-7.34,-7.34 -19.408,-7.203 -26.833,-0c-0.07,0.068 -8.678,8.677 -8.747,8.746c7.41,-7.409 7.41,-19.423 -0,-26.833c-7.41,-7.41 -19.424,-7.41 -26.834,-0l-12.655,12.655c7.41,-7.41 7.41,-19.424 0,-26.834c-7.41,-7.41 -19.423,-7.41 -26.833,0l-26.42,26.423l-16.051,16.05c-11.207,11.208 -17.868,26.184 -18.685,42.012l-1.543,29.877l-29.189,29.19m176.484,-13.48l28.057,-28.056" style="fill:none;stroke:#000;stroke-width:20px;"/>
    <path d="M502,358.222c-2.531,-4.114 -5.52,-7.929 -8.909,-11.372l-44.716,-45.427c-10.251,-10.415 -27.005,-10.547 -37.419,-0.295l-7.464,7.347m-0,-0l-36.751,-37.201c-6.336,-6.436 -16.366,-7.907 -24.01,-3.096c-10.459,6.583 -11.302,20.904 -3.397,29.348m0,0l-6.199,-6.297c-7.35,-7.468 -19.364,-7.563 -26.832,-0.212c-7.398,7.282 -7.355,19.351 -0.212,26.833c0.067,0.07 8.357,8.49 8.67,8.807m0.008,0.009c-0.002,-0.002 -0.005,-0.005 -0.008,-0.009m-0,0c-7.352,-7.459 -19.36,-7.551 -26.825,-0.203c-7.468,7.35 -7.563,19.364 -0.212,26.832l12.556,12.755m-0,0l6.654,6.76c-7.351,-7.468 -19.365,-7.563 -26.833,-0.212c-7.468,7.351 -7.563,19.365 -0.212,26.833l79.352,80.478c10.931,11.105 25.545,17.851 41.088,18.965l41.082,3.129m6.118,-148.782l-44.037,-44.737m-103.212,57.566l44.588,45.163m-30.099,-84.538l57.144,57.918m-32.579,-87.058l59.623,60.437"
          style="fill:none;stroke:#000;stroke-width:20px;"/>
    <path d="M199.827,103.049l0,27.43m-0.613,-120.476l-19.933,22.215c-10.548,11.755 -16.387,27.005 -16.387,42.799l-0,29.002c-0,14.613 11.847,26.459 26.459,26.459l10.474,0.001m0,-0c0,6.646 -0.744,13.27 -2.217,19.75l-18.222,80.15c-2.328,10.241 3.606,20.789 13.741,23.543c10.698,2.905 21.658,-3.714 24.06,-14.54c0,-0 20.606,-90.051 20.64,-89.932l22.219,90.244c2.607,10.588 13.457,16.92 23.958,13.982l0.012,-0.003c10.213,-2.857 16.285,-13.336 13.686,-23.617l-19.697,-77.925c3.211,5.922 9.482,9.944 16.692,9.944c10.479,-0 18.974,-8.495 18.974,-18.974l-0,-18.896c-0,10.479 8.495,18.974 18.973,18.974c10.479,0 18.974,-8.495 18.974,-18.974l0,-49.066c-0.002,-10.943 -2.807,-21.705 -8.148,-31.257m-65.468,108.25c-1.606,-2.608 -2.84,-5.871 -2.84,-9.74l0,-5.017"
          style="fill:none;stroke:#000;stroke-width:20px;"/></svg>