<svg xmlns="http://www.w3.org/2000/svg" version="1.1" x="0" y="0" viewBox="0 0 64 64"
     style="enable-background:new 0 0 512 512" xml:space="preserve">
        <circle cx="40" cy="46" r="2" fill="#000000"/>
    <circle cx="24" cy="46" r="2" fill="#000000"/>
    <circle cx="40" cy="18" r="2" fill="#000000"/>
    <circle cx="24" cy="18" r="2" fill="#000000"/>
    <circle cx="17" cy="32" r="2" fill="#000000"/>
    <circle cx="48" cy="32" r="2" fill="#000000"/>
    <path d="M59.856 23.918A8.98 8.98 0 0 1 52 15a8.89 8.89 0 0 1 .651-3.348 28.821 28.821 0 0 0-13.8-7.831A9.03 9.03 0 0 1 32 7a9.03 9.03 0 0 1-6.852-3.179 28.821 28.821 0 0 0-13.8 7.831A8.89 8.89 0 0 1 12 15a8.98 8.98 0 0 1-7.856 8.918 29.12 29.12 0 0 0 0 16.164A8.98 8.98 0 0 1 12 49a8.89 8.89 0 0 1-.651 3.348 28.821 28.821 0 0 0 13.8 7.831 8.974 8.974 0 0 1 13.7 0 28.821 28.821 0 0 0 13.8-7.831A8.89 8.89 0 0 1 52 49a8.98 8.98 0 0 1 7.856-8.918 29.12 29.12 0 0 0 0-16.164zM40 12a6 6 0 1 1-6 6 6 6 0 0 1 6-6zm-16 0a6 6 0 1 1-6 6 6 6 0 0 1 6-6zM11 32a6 6 0 1 1 6 6 6 6 0 0 1-6-6zm13 20a6 6 0 1 1 6-6 6 6 0 0 1-6 6zm3-20a5 5 0 1 1 5 5 5 5 0 0 1-5-5zm13 20a6 6 0 1 1 6-6 6 6 0 0 1-6 6zm8-14a6 6 0 1 1 6-6 6 6 0 0 1-6 6z"
          fill="#000000"/>
    <path d="M31 31h2v2h-2z" fill="#000000"/>
</svg>